<svg xmlns="http://www.w3.org/2000/svg" width="46.865" height="50.213" viewBox="0 0 46.865 50.213"><defs><style>.a{opacity:0.997;}.b{fill:#1370a4;}</style></defs><g class="a"><g transform="translate(15.064 3.348)"><path class="b" d="M171.716,37.021V32h-6.7v5.021H160v6.7h5.021v5.021h6.7V43.716h5.021v-6.7Zm3.347,5.021h-5.021v5.021H166.7V42.043h-5.021V38.7H166.7V33.674h3.348V38.7h5.021Z" transform="translate(-160 -32)"/></g><path class="b" d="M51.149,18.411V0H27.716V18.411H16v31.8H62.865v-31.8ZM27.716,48.539H17.674V20.085H27.716Zm10.879,0H34.411V33.475H38.6Zm5.858,0H40.269V33.475h4.184Zm5.021,0H46.128V31.8H32.738V48.539H29.39V1.674H49.475Zm11.716,0H51.149V20.085H61.191Z" transform="translate(-16)"/></g></svg>