<svg xmlns="http://www.w3.org/2000/svg" width="60" height="39.333" viewBox="0 0 60 39.333"><defs><style>.a{opacity:0.997;}.b{fill:#1370a4;}</style></defs><g class="a"><g transform="translate(0 28.182)"><path class="b" d="M59.121,328.661a12.4,12.4,0,0,0-5.173,1,10.766,10.766,0,0,1-4.539.88,10.765,10.765,0,0,1-4.539-.88,12.4,12.4,0,0,0-5.173-1,12.385,12.385,0,0,0-5.17,1,10.751,10.751,0,0,1-4.535.88,10.757,10.757,0,0,1-4.537-.88,12.389,12.389,0,0,0-5.171-1,12.384,12.384,0,0,0-5.17,1,10.75,10.75,0,0,1-4.535.88,10.745,10.745,0,0,1-4.534-.88,12.377,12.377,0,0,0-5.168-1,.879.879,0,1,0,0,1.758,10.746,10.746,0,0,1,4.534.88,12.377,12.377,0,0,0,5.168,1,12.384,12.384,0,0,0,5.17-1,10.751,10.751,0,0,1,4.535-.88,10.758,10.758,0,0,1,4.537.88,12.39,12.39,0,0,0,5.171,1,12.385,12.385,0,0,0,5.17-1,10.751,10.751,0,0,1,4.535-.88,10.764,10.764,0,0,1,4.539.88,12.4,12.4,0,0,0,5.173,1,12.4,12.4,0,0,0,5.173-1,10.765,10.765,0,0,1,4.539-.88.879.879,0,1,0,0-1.758Z" transform="translate(0 -328.661)"/></g><g transform="translate(51.666 32.817)"><path class="b" d="M444.462,368.779a.879.879,0,0,0-1.136-.5l-.16.062a14.28,14.28,0,0,1-1.624.553.879.879,0,1,0,.442,1.7,15.887,15.887,0,0,0,1.816-.615l.158-.061A.879.879,0,0,0,444.462,368.779Z" transform="translate(-440.883 -368.216)"/></g><g transform="translate(10.333 31.939)"><path class="b" d="M126.663,362.594a10.577,10.577,0,0,1-3.949-.87,13.889,13.889,0,0,0-10.343,0,12.127,12.127,0,0,1-9.072,0,13.884,13.884,0,0,0-10.341,0,10.561,10.561,0,0,1-3.936.869.879.879,0,0,0,.064,1.757,12.194,12.194,0,0,0,4.506-.987,12.128,12.128,0,0,1,9.071,0,13.884,13.884,0,0,0,10.341,0,12.133,12.133,0,0,1,9.074,0,12.208,12.208,0,0,0,4.519.987.879.879,0,0,0,.063-1.757Z" transform="translate(-88.177 -360.725)"/></g><g transform="translate(19.407 35.697)"><path class="b" d="M185.894,392.791a12.384,12.384,0,0,0-5.17,1,12.129,12.129,0,0,1-9.072,0,12.388,12.388,0,0,0-5.171-1,.879.879,0,1,0,0,1.758,10.759,10.759,0,0,1,4.537.88,13.884,13.884,0,0,0,10.341,0,10.751,10.751,0,0,1,4.535-.88.879.879,0,1,0,0-1.758Z" transform="translate(-165.603 -392.791)"/></g><g transform="translate(4.85 32.878)"><path class="b" d="M44.213,369.351a14.207,14.207,0,0,1-1.631-.555.879.879,0,0,0-.635,1.639,15.852,15.852,0,0,0,1.824.617.879.879,0,1,0,.441-1.7Z" transform="translate(-41.386 -368.737)"/></g><g transform="translate(15.97 10.333)"><path class="b" d="M161.823,182.37a14.031,14.031,0,0,0-25.548,8.015c0,.334.012.671.035,1a.879.879,0,0,0,.876.817l.063,0a.879.879,0,0,0,.815-.939c-.021-.29-.031-.585-.031-.877a12.273,12.273,0,0,1,22.348-7.01.879.879,0,0,0,1.442-1.005Z" transform="translate(-136.275 -176.354)"/></g><g transform="translate(5.636 23.485)"><path class="b" d="M54.612,288.581H48.976a.879.879,0,1,0,0,1.758h5.636a.879.879,0,1,0,0-1.758Z" transform="translate(-48.097 -288.581)"/></g><g transform="translate(29.121)"><path class="b" d="M249.379,88.177a.879.879,0,0,0-.879.879v5.636a.879.879,0,0,0,1.758,0V89.056A.879.879,0,0,0,249.379,88.177Z" transform="translate(-248.5 -88.177)"/></g><g transform="translate(41.742 6.879)"><path class="b" d="M361.683,147.132a.879.879,0,0,0-1.243,0l-3.986,3.986a.879.879,0,1,0,1.243,1.243l3.985-3.986A.879.879,0,0,0,361.683,147.132Z" transform="translate(-356.197 -146.874)"/></g><g transform="translate(21.572 5.259)"><path class="b" d="M186.488,135.333l-.719-1.736a.879.879,0,1,0-1.624.673l.719,1.736a.879.879,0,0,0,1.624-.673Z" transform="translate(-184.078 -133.055)"/></g><g transform="translate(45.611 15.935)"><path class="b" d="M392.638,224.7a.879.879,0,0,0-1.148-.476l-1.736.719a.879.879,0,1,0,.673,1.624l1.736-.719A.879.879,0,0,0,392.638,224.7Z" transform="translate(-389.211 -224.159)"/></g><g transform="translate(35.951 5.259)"><path class="b" d="M308.718,133.121a.879.879,0,0,0-1.148.476l-.719,1.736a.879.879,0,1,0,1.624.673l.719-1.736A.879.879,0,0,0,308.718,133.121Z" transform="translate(-306.783 -133.054)"/></g><g transform="translate(10.895 15.935)"><path class="b" d="M95.924,224.944l-1.736-.719a.879.879,0,1,0-.673,1.624l1.736.719a.879.879,0,1,0,.673-1.624Z" transform="translate(-92.973 -224.158)"/></g><g transform="translate(3.757 5.636)"><path class="b" d="M42,136.275a5.864,5.864,0,0,0-3.585,1.228,4.83,4.83,0,0,0-1.448-.222,4.91,4.91,0,0,0-4.9,4.9.879.879,0,0,0,.879.879H47.034a.879.879,0,0,0,.879-.879A5.918,5.918,0,0,0,42,136.275Zm-8.055,5.032a3.153,3.153,0,0,1,3.022-2.268,3.118,3.118,0,0,1,1.266.271.879.879,0,0,0,.953-.16,4.136,4.136,0,0,1,6.874,2.157Z" transform="translate(-32.064 -136.275)"/></g><g transform="translate(33.818 19.392)"><path class="b" d="M299.525,254.66a4.825,4.825,0,0,0-1.448.222,5.894,5.894,0,0,0-9.5,4.683.879.879,0,0,0,.879.879h14.091a.879.879,0,0,0,.879-.879A4.91,4.91,0,0,0,299.525,254.66Zm-9.092,4.026a4.136,4.136,0,0,1,6.874-2.157.879.879,0,0,0,.952.159,3.119,3.119,0,0,1,1.266-.271,3.153,3.153,0,0,1,3.022,2.268Z" transform="translate(-288.581 -253.654)"/></g></g></svg>