<svg xmlns="http://www.w3.org/2000/svg" width="40.531" height="41.647" viewBox="0 0 40.531 41.647"><defs><style>.a{opacity:0.997;}.b{fill:#1370a4;}</style></defs><g class="a"><path class="b" d="M.978,40.931a1.388,1.388,0,0,0,1.215.716h5.9a1.4,1.4,0,0,0,1.3-.9l.183-.486H32.562l.183.486a1.4,1.4,0,0,0,1.3.9h5.9a1.388,1.388,0,0,0,1.18-2.125l-8.319-13.3a6.23,6.23,0,0,0,2.146-4.7V11.106A11.119,11.119,0,0,0,23.846,0H18.293A11.119,11.119,0,0,0,7.187,11.106V21.518a6.23,6.23,0,0,0,2.146,4.7l-8.318,13.3a1.388,1.388,0,0,0-.037,1.409ZM10.1,38.87l.521-1.388h20.9l.521,1.388Zm4.165-11.106H27.877l.521,1.388H13.742Zm-1.041,2.776h15.7l.521,1.388H12.7ZM12.18,33.317H29.959L31,36.094H11.139Zm27.765,6.941h-5.9l-4.7-12.527a6.2,6.2,0,0,0,2.32-.716ZM28.7,26.376H26.626c.035-3.015.519-7.8,6.938-10.747v5.888A4.864,4.864,0,0,1,28.7,26.376ZM18.293,1.388h5.553a9.728,9.728,0,0,1,9.718,9.718v3.009c-7.742,3.259-8.288,8.992-8.326,12.262H16.9c-.041-3.27-.587-9-8.329-12.262V11.106a9.728,9.728,0,0,1,9.718-9.718ZM8.575,21.518V15.629c6.418,2.944,6.9,7.732,6.941,10.747H13.434A4.864,4.864,0,0,1,8.575,21.518Zm1.9,5.5a6.2,6.2,0,0,0,2.32.716l-4.7,12.527h-5.9Z" transform="translate(-0.804 0)"/><path class="b" d="M14.694,32.388h1.388a.694.694,0,1,0,0-1.388H14.694a.694.694,0,1,0,0,1.388Z" transform="translate(-4.841 -9.483)"/><path class="b" d="M44.082,31H42.694a.694.694,0,1,0,0,1.388h1.388a.694.694,0,1,0,0-1.388Z" transform="translate(-13.406 -9.483)"/><path class="b" d="M15.721,14.688a17.1,17.1,0,0,1,2.647,1.794,1.38,1.38,0,0,0,.878.318H31.577a1.38,1.38,0,0,0,.878-.318A17.1,17.1,0,0,1,35.1,14.688a1.388,1.388,0,0,0,.721-1.213v-.841A7.644,7.644,0,0,0,28.188,5H22.635A7.644,7.644,0,0,0,15,12.635v.841A1.388,1.388,0,0,0,15.721,14.688Zm18.714-2.053-.006.838a18.158,18.158,0,0,0-2.852,1.938H26.106V6.388h2.082A6.254,6.254,0,0,1,34.435,12.635Zm-18.047,0a6.254,6.254,0,0,1,6.247-6.247h2.082v9.023H19.254a18.138,18.138,0,0,0-2.866-1.936Z" transform="translate(-5.147 -1.529)"/><path class="b" d="M30.471,25H27.694a.694.694,0,1,0,0,1.388h2.776a.694.694,0,1,0,0-1.388Z" transform="translate(-8.817 -7.647)"/><path class="b" d="M30.471,29H27.694a.694.694,0,0,0,0,1.388h2.776a.694.694,0,0,0,0-1.388Z" transform="translate(-8.817 -8.871)"/><path class="b" d="M30.471,33H27.694a.694.694,0,0,0,0,1.388h2.776a.694.694,0,0,0,0-1.388Z" transform="translate(-8.817 -10.094)"/></g></svg>