<svg xmlns="http://www.w3.org/2000/svg" width="51.114" height="46.337" viewBox="0 0 51.114 46.337"><defs><style>.a{opacity:0.997;}.b{fill:#1370a4;}</style></defs><g class="a"><g transform="translate(0)"><path class="b" d="M50.232,43.209H38.961V41.033a.881.881,0,0,0-.449-.767L26.438,33.48V30.026h2.388v1.313a.881.881,0,0,0,.881.881h7.2a.881.881,0,0,0,.828-1.181l-.723-2.053.731-2.009a.881.881,0,0,0-.828-1.181H33.638V24.518a.881.881,0,0,0-.881-.881H26.438V22.561a.881.881,0,0,0-1.763,0V33.48L12.6,40.257a.881.881,0,0,0-.449.767V43.2H.881A.881.881,0,0,0,0,44.082V67.136a.881.881,0,0,0,.881.881H50.232a.881.881,0,0,0,.881-.881V44.091A.881.881,0,0,0,50.232,43.209ZM33.638,29.144l-.035-.035V27.593h2.009l-.361,1.128a.881.881,0,0,0,0,.608l.414,1.128H30.589v-.432h2.168A.881.881,0,0,0,33.638,29.144Zm-7.2-3.745h5.437v2.864H26.438ZM12.153,66.254H1.763V44.972h10.39Zm12.523,0H20.049V56.19h4.627Zm6.389,0H26.438V56.19h4.627Zm6.169,0H32.827V55.309a.881.881,0,0,0-.881-.881H19.168a.881.881,0,0,0-.881.881V66.254H13.88V41.579L25.557,35,37.2,41.544l.035,2.538Zm12.117,0H38.961V44.972h10.39Z" transform="translate(0 -21.68)"/></g><g transform="translate(21.864 16.021)"><path class="b" d="M202.173,167.12a3.693,3.693,0,1,0,3.692,3.684A3.7,3.7,0,0,0,202.173,167.12Zm0,5.622a1.93,1.93,0,1,1,1.93-1.921h.009A1.93,1.93,0,0,1,202.173,172.742Z" transform="translate(-198.48 -167.12)"/></g><g transform="translate(3.886 25.231)"><rect class="b" width="1.763" height="3.525"/></g><g transform="translate(8.231 25.231)"><rect class="b" width="1.763" height="3.525"/></g><g transform="translate(16.559 25.231)"><rect class="b" width="3.525" height="1.763"/></g><g transform="translate(31.029 25.231)"><rect class="b" width="3.525" height="1.763"/></g><g transform="translate(16.559 29.337)"><rect class="b" width="3.525" height="1.763"/></g><g transform="translate(31.029 29.337)"><rect class="b" width="3.525" height="1.763"/></g><g transform="translate(3.886 39.111)"><rect class="b" width="1.763" height="3.525"/></g><g transform="translate(8.231 39.111)"><rect class="b" width="1.763" height="3.525"/></g><g transform="translate(41.12 25.231)"><rect class="b" width="1.763" height="3.525"/></g><g transform="translate(45.465 25.231)"><rect class="b" width="1.763" height="3.525"/></g><g transform="translate(41.12 39.111)"><rect class="b" width="1.763" height="3.525"/></g><g transform="translate(45.465 39.111)"><rect class="b" width="1.763" height="3.525"/></g></g></svg>